<svg xmlns="http://www.w3.org/2000/svg" width="340" height="200" viewBox="0 0 340 200"><style>* {
          font-family: 'Segoe UI', Ubuntu, "Helvetica Neue", Sans-Serif
        }</style><g class="gpsc-root"><rect x="1" y="1" rx="5" ry="5" height="99%" width="99.41176470588235%" stroke="#1a1b27" stroke-width="1" fill="#1a1b27" stroke-opacity="1"></rect><text x="30" y="40" class="gpsc-item" style="--gpsc-i: 0; font-size: 22px; fill: #70a5fd;">Top Languages by Commit</text><g transform="translate(0,40)"><g transform="translate(40,0)"><rect y="18" width="14" height="14" class="gpsc-item" style="--gpsc-i: 0; stroke-width: 1px;" fill="#f1e05a" stroke="#1a1b27"></rect><rect y="43.2" width="14" height="14" class="gpsc-item" style="--gpsc-i: 1; stroke-width: 1px;" fill="#3572A5" stroke="#1a1b27"></rect><rect y="68.4" width="14" height="14" class="gpsc-item" style="--gpsc-i: 2; stroke-width: 1px;" fill="#3178c6" stroke="#1a1b27"></rect><rect y="93.60000000000002" width="14" height="14" class="gpsc-item" style="--gpsc-i: 3; stroke-width: 1px;" fill="#b07219" stroke="#1a1b27"></rect><rect y="118.80000000000001" width="14" height="14" class="gpsc-item" style="--gpsc-i: 4; stroke-width: 1px;" fill="#00B4AB" stroke="#1a1b27"></rect><text x="16.8" y="30" class="gpsc-item" style="--gpsc-i: 0; fill: #38bdae; font-size: 14px;">JavaScript</text><text x="16.8" y="55.2" class="gpsc-item" style="--gpsc-i: 1; fill: #38bdae; font-size: 14px;">Python</text><text x="16.8" y="80.4" class="gpsc-item" style="--gpsc-i: 2; fill: #38bdae; font-size: 14px;">TypeScript</text><text x="16.8" y="105.60000000000002" class="gpsc-item" style="--gpsc-i: 3; fill: #38bdae; font-size: 14px;">Java</text><text x="16.8" y="130.8" class="gpsc-item" style="--gpsc-i: 4; fill: #38bdae; font-size: 14px;">Dart</text></g><g transform="translate( 230, 80 )"><g class="arc" style="--gpsc-i: 0;"><path d="M3.67394039744206e-15,-60A60,60,0,1,1,-21.271972759171867,-56.102612906468536L-12.408650776183588,-32.72652419543998A35,35,0,1,0,2.1431318985078682e-15,-35Z" style="fill: #f1e05a; stroke-width: 2px;" stroke="#1a1b27"></path></g><g class="arc" style="--gpsc-i: 1;"><path d="M-21.271972759171867,-56.102612906468536A60,60,0,0,1,-3.0021805181594625,-59.924843864096836L-1.7512719689263532,-34.956158920723155A35,35,0,0,0,-12.408650776183588,-32.72652419543998Z" style="fill: #3572A5; stroke-width: 2px;" stroke="#1a1b27"></path></g><g class="arc" style="--gpsc-i: 2;"><path d="M-3.0021805181594625,-59.924843864096836A60,60,0,0,1,-1.6817031430020863,-59.97642765736233L-0.9809935000845504,-34.986249466794696A35,35,0,0,0,-1.7512719689263532,-34.956158920723155Z" style="fill: #3178c6; stroke-width: 2px;" stroke="#1a1b27"></path></g><g class="arc" style="--gpsc-i: 3;"><path d="M-1.6817031430020863,-59.97642765736233A60,60,0,0,1,-0.600676897517088,-59.996993151863784L-0.350394856884968,-34.998246005253876A35,35,0,0,0,-0.9809935000845504,-34.986249466794696Z" style="fill: #b07219; stroke-width: 2px;" stroke="#1a1b27"></path></g><g class="arc" style="--gpsc-i: 4;"><path d="M-0.600676897517088,-59.996993151863784A60,60,0,0,1,-1.1021821192326178e-14,-60L-6.429395695523604e-15,-35A35,35,0,0,0,-0.350394856884968,-34.998246005253876Z" style="fill: #00B4AB; stroke-width: 2px;" stroke="#1a1b27"></path></g></g></g></g></svg>