<svg xmlns="http://www.w3.org/2000/svg" width="340" height="200" viewBox="0 0 340 200"><style>* {
          font-family: 'Segoe UI', Ubuntu, "Helvetica Neue", Sans-Serif
        }</style><g class="gpsc-root"><rect x="1" y="1" rx="5" ry="5" height="99%" width="99.41176470588235%" stroke="#1a1b27" stroke-width="1" fill="#1a1b27" stroke-opacity="1"></rect><text x="30" y="40" class="gpsc-item" style="--gpsc-i: 0; font-size: 22px; fill: #70a5fd;">Top Languages by Commit</text><g transform="translate(0,40)"><g transform="translate(40,0)"><rect y="18" width="14" height="14" class="gpsc-item" style="--gpsc-i: 0; stroke-width: 1px;" fill="#f1e05a" stroke="#1a1b27"></rect><rect y="43.2" width="14" height="14" class="gpsc-item" style="--gpsc-i: 1; stroke-width: 1px;" fill="#3572A5" stroke="#1a1b27"></rect><rect y="68.4" width="14" height="14" class="gpsc-item" style="--gpsc-i: 2; stroke-width: 1px;" fill="#3178c6" stroke="#1a1b27"></rect><rect y="93.60000000000002" width="14" height="14" class="gpsc-item" style="--gpsc-i: 3; stroke-width: 1px;" fill="#b07219" stroke="#1a1b27"></rect><rect y="118.80000000000001" width="14" height="14" class="gpsc-item" style="--gpsc-i: 4; stroke-width: 1px;" fill="#00B4AB" stroke="#1a1b27"></rect><text x="16.8" y="30" class="gpsc-item" style="--gpsc-i: 0; fill: #38bdae; font-size: 14px;">JavaScript</text><text x="16.8" y="55.2" class="gpsc-item" style="--gpsc-i: 1; fill: #38bdae; font-size: 14px;">Python</text><text x="16.8" y="80.4" class="gpsc-item" style="--gpsc-i: 2; fill: #38bdae; font-size: 14px;">TypeScript</text><text x="16.8" y="105.60000000000002" class="gpsc-item" style="--gpsc-i: 3; fill: #38bdae; font-size: 14px;">Java</text><text x="16.8" y="130.8" class="gpsc-item" style="--gpsc-i: 4; fill: #38bdae; font-size: 14px;">Dart</text></g><g transform="translate( 230, 80 )"><g class="arc" style="--gpsc-i: 0;"><path d="M3.67394039744206e-15,-60A60,60,0,1,1,-22.786315445748812,-55.504809056574814L-13.292017343353473,-32.377805283001976A35,35,0,1,0,2.1431318985078682e-15,-35Z" style="fill: #f1e05a; stroke-width: 2px;" stroke="#1a1b27"></path></g><g class="arc" style="--gpsc-i: 1;"><path d="M-22.786315445748812,-55.504809056574814A60,60,0,0,1,-2.905950302328986,-59.92958745761891L-1.6951376763585753,-34.95892601694437A35,35,0,0,0,-13.292017343353473,-32.377805283001976Z" style="fill: #3572A5; stroke-width: 2px;" stroke="#1a1b27"></path></g><g class="arc" style="--gpsc-i: 2;"><path d="M-2.905950302328986,-59.92958745761891A60,60,0,0,1,-1.6277693076835684,-59.97791566135792L-0.9495320961487482,-34.98711746912545A35,35,0,0,0,-1.6951376763585753,-34.95892601694437Z" style="fill: #3178c6; stroke-width: 2px;" stroke="#1a1b27"></path></g><g class="arc" style="--gpsc-i: 3;"><path d="M-1.6277693076835684,-59.97791566135792A60,60,0,0,1,-0.5814084183173591,-59.997182969295395L-0.33915491068512615,-34.99835673208898A35,35,0,0,0,-0.9495320961487482,-34.98711746912545Z" style="fill: #b07219; stroke-width: 2px;" stroke="#1a1b27"></path></g><g class="arc" style="--gpsc-i: 4;"><path d="M-0.5814084183173591,-59.997182969295395A60,60,0,0,1,4.226888398968133e-14,-60L2.4656848993980778e-14,-35A35,35,0,0,0,-0.33915491068512615,-34.99835673208898Z" style="fill: #00B4AB; stroke-width: 2px;" stroke="#1a1b27"></path></g></g></g></g></svg>